#define layout_three_col_width 25
#define layout_three_col_height 16
static unsigned char layout_three_col_bits[] = {
   0xff, 0xff, 0xff, 0x01, 0x41, 0x00, 0x04, 0x01, 0x41, 0x00, 0x04, 0x01,
   0x41, 0x00, 0x04, 0x01, 0x41, 0x00, 0x04, 0x01, 0x7f, 0x00, 0xfc, 0x01,
   0x41, 0x00, 0x04, 0x01, 0x41, 0x00, 0x04, 0x01, 0x41, 0x00, 0x04, 0x01,
   0x41, 0x00, 0x04, 0x01, 0x7f, 0x00, 0xfc, 0x01, 0x41, 0x00, 0x04, 0x01,
   0x41, 0x00, 0x04, 0x01, 0x41, 0x00, 0x04, 0x01, 0x41, 0x00, 0x04, 0x01,
   0xff, 0xff, 0xff, 0x01 };
