#define layout_tall_width 25
#define layout_tall_height 16
static unsigned char layout_tall_bits[] = {
   0xff, 0xff, 0xff, 0x01, 0x01, 0x10, 0x00, 0x01, 0x01, 0x10, 0x00, 0x01,
   0x01, 0x10, 0x00, 0x01, 0x01, 0x10, 0x00, 0x01, 0x01, 0xf0, 0xff, 0x01,
   0x01, 0x10, 0x00, 0x01, 0x01, 0x10, 0x00, 0x01, 0x01, 0x10, 0x00, 0x01,
   0x01, 0x10, 0x00, 0x01, 0x01, 0xf0, 0xff, 0x01, 0x01, 0x10, 0x00, 0x01,
   0x01, 0x10, 0x00, 0x01, 0x01, 0x10, 0x00, 0x01, 0x01, 0x10, 0x00, 0x01,
   0xff, 0xff, 0xff, 0x01 };
