#define layout_full_width 25
#define layout_full_height 16
static unsigned char layout_full_bits[] = {
   0xff, 0xff, 0xff, 0x01, 0xff, 0xff, 0xff, 0x01, 0x01, 0x00, 0x00, 0x01,
   0x01, 0x00, 0x00, 0x01, 0x01, 0x00, 0x00, 0x01, 0x01, 0x00, 0x00, 0x01,
   0x01, 0x00, 0x00, 0x01, 0x01, 0x00, 0x00, 0x01, 0x01, 0x00, 0x00, 0x01,
   0x01, 0x00, 0x00, 0x01, 0x01, 0x00, 0x00, 0x01, 0x01, 0x00, 0x00, 0x01,
   0x01, 0x00, 0x00, 0x01, 0x01, 0x00, 0x00, 0x01, 0x01, 0x00, 0x00, 0x01,
   0xff, 0xff, 0xff, 0x01 };
